<svg xmlns="http://www.w3.org/2000/svg" viewBox="0 0 100 100" width="100" height="100" role="img" aria-label="Quartzbase">
  <defs>
    <linearGradient id="qbCore" x1="0" y1="0" x2="1" y2="1">
      <stop offset="0" stop-color="#6C63FF"></stop>
      <stop offset="1" stop-color="#00D4AA"></stop>
    </linearGradient>
  </defs>
  <g stroke="#0b0b12" stroke-width="0.9" stroke-linejoin="round">
    <polygon points="50,30 67,40 67,60 50,70 33,60 33,40" fill="url(#qbCore)"></polygon>
    <polygon points="50,30 50,6 88,28" fill="#b4aeff"></polygon>
    <polygon points="50,30 88,28 67,40" fill="#948cf7"></polygon>
    <polygon points="67,40 88,28 88,72" fill="#8981f5"></polygon>
    <polygon points="67,40 88,72 67,60" fill="#6f66ff"></polygon>
    <polygon points="67,60 88,72 50,94" fill="#463dc4"></polygon>
    <polygon points="67,60 50,94 50,70" fill="#372f9e"></polygon>
    <polygon points="50,70 50,94 12,72" fill="#463dc4"></polygon>
    <polygon points="50,70 12,72 33,60" fill="#574ed8"></polygon>
    <polygon points="33,60 12,72 12,28" fill="#6f66ff"></polygon>
    <polygon points="33,60 12,28 33,40" fill="#8981f5"></polygon>
    <polygon points="33,40 12,28 50,6" fill="#b4aeff"></polygon>
    <polygon points="33,40 50,6 50,30" fill="#bcb6ff"></polygon>
  </g>
</svg>